<?xml version="1.0"?>
<svg width="122.88" height="36.88" xmlns="http://www.w3.org/2000/svg" xmlns:svg="http://www.w3.org/2000/svg">
 <style type="text/css">.st0{fill-rule:evenodd;clip-rule:evenodd;}</style>
 <g class="layer">
  <title>Layer 1</title>
  <g id="svg_1">
   <path class="st0" d="m99.42,13.57c5.93,0 10.73,4.8 10.73,10.73c0,5.93 -4.8,10.73 -10.73,10.73s-10.73,-4.8 -10.73,-10.73c0,-5.93 4.8,-10.73 10.73,-10.73l0,0zm-20.37,-8.57c-0.59,1.27 -1.06,2.69 -1.42,4.23c-0.82,2.57 0.39,3.11 3.19,2.06c2.06,-1.23 4.12,-2.47 6.18,-3.7c1.05,-0.74 1.55,-1.47 1.38,-2.19c-0.34,-1.42 -3.08,-2.16 -5.33,-2.6c-2.86,-0.57 -2.66,-0.69 -4,2.2l0,0zm-55.19,14.31c2.75,0 4.99,2.23 4.99,4.99c0,2.75 -2.23,4.99 -4.99,4.99c-2.75,0 -4.99,-2.23 -4.99,-4.99c0,-2.76 2.23,-4.99 4.99,-4.99l0,0zm75.56,0c2.75,0 4.99,2.23 4.99,4.99c0,2.75 -2.23,4.99 -4.99,4.99c-2.75,0 -4.99,-2.23 -4.99,-4.99c0,-2.76 2.23,-4.99 4.99,-4.99l0,0zm-53.28,-6.81c2.77,-2.97 5.97,-4.9 9.67,-6.76c8.1,-4.08 13.06,-3.58 21.66,-3.58l-2.89,7.5c-1.21,1.6 -2.58,2.73 -4.66,2.84l-23.78,0l0,0zm-22.28,1.07c5.93,0 10.73,4.8 10.73,10.73c0,5.93 -4.8,10.73 -10.73,10.73s-10.73,-4.8 -10.73,-10.73c0,-5.93 4.8,-10.73 10.73,-10.73l0,0zm16.96,-3.27c3.52,-2.19 7.35,-4.15 11.59,-5.82c12.91,-5.09 22.78,-6 36.32,-1.9c4.08,1.55 8.16,3.1 12.24,4.06c4.03,0.96 21.48,1.88 21.91,4.81l-4.31,5.15c1.57,1.36 2.85,3.03 3.32,5.64c-0.13,1.61 -0.57,2.96 -1.33,4.04c-1.29,1.85 -5.07,3.76 -7.11,2.67c-0.65,-0.35 -1.02,-1.05 -1.01,-2.24c0.06,-23.9 -28.79,-21.18 -26.62,2.82l-50.34,0c9.32,-24.04 -30.44,-24.13 -23.38,-0.83c-2.48,2.68 -8.33,-1.36 -12.1,-9.95c1.03,-1.02 2.16,-1.99 3.42,-2.89c-0.06,-0.05 0.06,0.19 -0.15,-0.17c-0.21,-0.36 0.51,-1.87 1.99,-2.74c7.76,-4.55 26.47,-4.43 35.56,-2.65l0,0z" id="svg_2"/>
  </g>
 </g>
</svg>